<mxfile host="app.diagrams.net" modified="2023-09-18T14:10:14.199Z" agent="Mozilla/5.0 (Windows NT 10.0; Win64; x64) AppleWebKit/537.36 (KHTML, like Gecko) Chrome/117.0.0.0 Safari/537.36 Edg/117.0.2045.31" version="21.6.9" etag="WoLvi-u_yckQdJQJYt6q" type="github">
  <diagram name="Page-1" id="p6EAny9-ZUfy5Mrr-Q3C">
    <mxGraphModel>
      <root>
        <mxCell id="0" />
        <mxCell id="1" parent="0" />
      </root>
    </mxGraphModel>
  </diagram>
</mxfile>
